G04 EAGLE Gerber RS-274X export*
G75*
%MOMM*%
%FSLAX34Y34*%
%LPD*%
%INBottom Copper*%
%IPPOS*%
%AMOC8*
5,1,8,0,0,1.08239X$1,22.5*%
G01*
%ADD10C,1.320800*%
%ADD11C,1.524000*%
%ADD12C,1.016000*%
%ADD13C,1.500000*%


D10*
X51100Y655296D02*
X51100Y668504D01*
X76500Y668504D02*
X76500Y655296D01*
X203500Y655296D02*
X203500Y668504D01*
X228900Y668504D02*
X228900Y655296D01*
X101900Y655296D02*
X101900Y668504D01*
X127300Y668504D02*
X127300Y655296D01*
X178100Y655296D02*
X178100Y668504D01*
X152700Y668504D02*
X152700Y655296D01*
X228900Y731496D02*
X228900Y744704D01*
X203500Y744704D02*
X203500Y731496D01*
X178100Y731496D02*
X178100Y744704D01*
X152700Y744704D02*
X152700Y731496D01*
X127300Y731496D02*
X127300Y744704D01*
X101900Y744704D02*
X101900Y731496D01*
X76500Y731496D02*
X76500Y744704D01*
X51100Y744704D02*
X51100Y731496D01*
X271100Y668504D02*
X271100Y655296D01*
X296500Y655296D02*
X296500Y668504D01*
X423500Y668504D02*
X423500Y655296D01*
X448900Y655296D02*
X448900Y668504D01*
X321900Y668504D02*
X321900Y655296D01*
X347300Y655296D02*
X347300Y668504D01*
X398100Y668504D02*
X398100Y655296D01*
X372700Y655296D02*
X372700Y668504D01*
X448900Y731496D02*
X448900Y744704D01*
X423500Y744704D02*
X423500Y731496D01*
X398100Y731496D02*
X398100Y744704D01*
X372700Y744704D02*
X372700Y731496D01*
X347300Y731496D02*
X347300Y744704D01*
X321900Y744704D02*
X321900Y731496D01*
X296500Y731496D02*
X296500Y744704D01*
X271100Y744704D02*
X271100Y731496D01*
X283800Y368504D02*
X283800Y355296D01*
X309200Y355296D02*
X309200Y368504D01*
X436200Y368504D02*
X436200Y355296D01*
X436200Y431496D02*
X436200Y444704D01*
X334600Y368504D02*
X334600Y355296D01*
X360000Y355296D02*
X360000Y368504D01*
X410800Y368504D02*
X410800Y355296D01*
X385400Y355296D02*
X385400Y368504D01*
X410800Y431496D02*
X410800Y444704D01*
X385400Y444704D02*
X385400Y431496D01*
X360000Y431496D02*
X360000Y444704D01*
X334600Y444704D02*
X334600Y431496D01*
X309200Y431496D02*
X309200Y444704D01*
X283800Y444704D02*
X283800Y431496D01*
X63800Y368504D02*
X63800Y355296D01*
X89200Y355296D02*
X89200Y368504D01*
X216200Y368504D02*
X216200Y355296D01*
X216200Y431496D02*
X216200Y444704D01*
X114600Y368504D02*
X114600Y355296D01*
X140000Y355296D02*
X140000Y368504D01*
X190800Y368504D02*
X190800Y355296D01*
X165400Y355296D02*
X165400Y368504D01*
X190800Y431496D02*
X190800Y444704D01*
X165400Y444704D02*
X165400Y431496D01*
X140000Y431496D02*
X140000Y444704D01*
X114600Y444704D02*
X114600Y431496D01*
X89200Y431496D02*
X89200Y444704D01*
X63800Y444704D02*
X63800Y431496D01*
D11*
X435600Y36120D02*
X435600Y20880D01*
X461000Y20880D02*
X461000Y36120D01*
D12*
X372700Y719800D02*
X372700Y738100D01*
X385000Y707500D02*
X419500Y707500D01*
X448900Y678100D01*
X448900Y661900D01*
X385000Y707500D02*
X372700Y719800D01*
X436200Y361900D02*
X436200Y339200D01*
X426500Y329500D01*
X241000Y329500D01*
X216200Y354300D02*
X216200Y361900D01*
X216200Y354300D02*
X241000Y329500D01*
D13*
X373000Y630000D03*
D12*
X153000Y630000D01*
X284300Y438600D02*
X283800Y438100D01*
X284300Y438600D02*
X284300Y468500D01*
X68000Y468500D02*
X63500Y464000D01*
X63500Y438400D01*
X63800Y438100D01*
X68000Y468500D02*
X284300Y468500D01*
D13*
X152500Y570000D03*
D12*
X55240Y570000D01*
X15240Y530000D01*
D13*
X385000Y63500D03*
D12*
X15240Y76000D02*
X15240Y530000D01*
X15240Y76000D02*
X76000Y15240D01*
X336740Y15240D01*
X385000Y63500D01*
X153000Y630000D02*
X152700Y630300D01*
X152700Y661900D01*
X228900Y738100D02*
X228900Y777600D01*
X237300Y786000D01*
X398100Y746900D02*
X398100Y738100D01*
X359000Y786000D02*
X237300Y786000D01*
X359000Y786000D02*
X398100Y746900D01*
X468000Y408500D02*
X464000Y404500D01*
X468000Y408500D02*
X468000Y719000D01*
X448900Y738100D01*
X464000Y404500D02*
X349500Y404500D01*
X334600Y389600D01*
X334600Y361900D01*
X51100Y719400D02*
X51100Y738100D01*
X51100Y719400D02*
X59500Y711000D01*
X263000Y711000D01*
X271100Y719100D02*
X271100Y738100D01*
X271100Y719100D02*
X263000Y711000D01*
D13*
X394500Y600000D03*
D12*
X51100Y720600D02*
X51100Y738100D01*
X39500Y600000D02*
X394500Y600000D01*
X24000Y615500D02*
X24000Y710500D01*
X25500Y712000D01*
X37500Y712000D01*
X51100Y725600D01*
X51100Y738100D01*
X24000Y615500D02*
X39500Y600000D01*
X216200Y438100D02*
X216200Y407300D01*
X224500Y399000D02*
X292500Y399000D01*
X309200Y382300D01*
X309200Y361900D01*
X224500Y399000D02*
X216200Y407300D01*
X51100Y661900D02*
X51100Y682100D01*
X59500Y690500D01*
X261000Y690500D01*
X271100Y680400D01*
X271100Y661900D01*
D13*
X257000Y540000D03*
D12*
X214000Y494000D01*
X62500Y494000D01*
X38000Y469500D01*
X38000Y400000D01*
X47000Y391000D01*
X165400Y382600D02*
X165400Y361900D01*
X157000Y391000D02*
X47000Y391000D01*
X157000Y391000D02*
X165400Y382600D01*
D13*
X248500Y171000D03*
D12*
X165500Y254000D01*
X165500Y361800D02*
X165400Y361900D01*
X165500Y361800D02*
X165500Y254000D01*
M02*
