M48
;GenerationSoftware,Autodesk,EAGLE,9.6.2*%
;CreationDate,2021-06-03T11:54:37Z*%
FMAT,2
ICI,OFF
METRIC,TZ,000.000
T3C0.813
T2C1.000
T1C1.016
%
G90
M71
T1
X46100Y2850
X43560Y2850
T2
X37300Y63000
X15250Y57000
X38500Y6350
X39450Y60000
X25700Y54000
X24850Y17100
T3
X20350Y66190
X22890Y66190
X10190Y66190
X12730Y66190
X17810Y66190
X15270Y66190
X22890Y73810
X20350Y73810
X17810Y73810
X15270Y73810
X12730Y73810
X10190Y73810
X7650Y73810
X5110Y73810
X27110Y66190
X29650Y66190
X42350Y66190
X44890Y66190
X32190Y66190
X34730Y66190
X39810Y66190
X37270Y66190
X44890Y73810
X42350Y73810
X39810Y73810
X37270Y73810
X34730Y73810
X32190Y73810
X29650Y73810
X27110Y73810
X28380Y36190
X30920Y36190
X43620Y36190
X43620Y43810
X33460Y36190
X36000Y36190
X41080Y36190
X38540Y36190
X41080Y43810
X38540Y43810
X36000Y43810
X33460Y43810
X30920Y43810
X5110Y66190
X6380Y36190
X8920Y36190
X21620Y36190
X21620Y43810
X11460Y36190
X14000Y36190
X19080Y36190
X28380Y43810
X19080Y43810
X16540Y43810
X14000Y43810
X11460Y43810
X8920Y43810
X6380Y43810
X7650Y66190
X16540Y36190
M30