G04 EAGLE Gerber RS-274X export*
G75*
%MOMM*%
%FSLAX34Y34*%
%LPD*%
%INSoldermask Top*%
%IPPOS*%
%AMOC8*
5,1,8,0,0,1.08239X$1,22.5*%
G01*
%ADD10R,1.803200X2.003200*%
%ADD11R,2.003200X1.803200*%
%ADD12R,2.603200X2.603200*%
%ADD13C,1.524000*%
%ADD14R,1.003200X1.703200*%
%ADD15R,2.703200X3.203200*%
%ADD16C,1.727200*%
%ADD17R,1.703200X1.703200*%
%ADD18R,2.006200X1.803200*%
%ADD19R,1.803200X2.006200*%
%ADD20R,1.503200X2.203200*%
%ADD21R,2.003200X2.203200*%
%ADD22R,1.603200X1.803200*%
%ADD23C,1.703200*%


D10*
X201000Y630000D03*
X229000Y630000D03*
X421000Y630000D03*
X449000Y630000D03*
X421000Y600000D03*
X449000Y600000D03*
D11*
X250000Y196000D03*
X250000Y224000D03*
D10*
X86000Y46000D03*
X114000Y46000D03*
D11*
X32500Y386000D03*
X32500Y414000D03*
D10*
X414000Y183500D03*
X386000Y183500D03*
X414000Y158500D03*
X386000Y158500D03*
D12*
X237000Y510000D03*
X193000Y510000D03*
X460000Y78000D03*
X460000Y122000D03*
D13*
X51100Y655296D02*
X51100Y668504D01*
X76500Y668504D02*
X76500Y655296D01*
X203500Y655296D02*
X203500Y668504D01*
X228900Y668504D02*
X228900Y655296D01*
X101900Y655296D02*
X101900Y668504D01*
X127300Y668504D02*
X127300Y655296D01*
X178100Y655296D02*
X178100Y668504D01*
X152700Y668504D02*
X152700Y655296D01*
X228900Y731496D02*
X228900Y744704D01*
X203500Y744704D02*
X203500Y731496D01*
X178100Y731496D02*
X178100Y744704D01*
X152700Y744704D02*
X152700Y731496D01*
X127300Y731496D02*
X127300Y744704D01*
X101900Y744704D02*
X101900Y731496D01*
X76500Y731496D02*
X76500Y744704D01*
X51100Y744704D02*
X51100Y731496D01*
X271100Y668504D02*
X271100Y655296D01*
X296500Y655296D02*
X296500Y668504D01*
X423500Y668504D02*
X423500Y655296D01*
X448900Y655296D02*
X448900Y668504D01*
X321900Y668504D02*
X321900Y655296D01*
X347300Y655296D02*
X347300Y668504D01*
X398100Y668504D02*
X398100Y655296D01*
X372700Y655296D02*
X372700Y668504D01*
X448900Y731496D02*
X448900Y744704D01*
X423500Y744704D02*
X423500Y731496D01*
X398100Y731496D02*
X398100Y744704D01*
X372700Y744704D02*
X372700Y731496D01*
X347300Y731496D02*
X347300Y744704D01*
X321900Y744704D02*
X321900Y731496D01*
X296500Y731496D02*
X296500Y744704D01*
X271100Y744704D02*
X271100Y731496D01*
X283800Y368504D02*
X283800Y355296D01*
X309200Y355296D02*
X309200Y368504D01*
X436200Y368504D02*
X436200Y355296D01*
X436200Y431496D02*
X436200Y444704D01*
X334600Y368504D02*
X334600Y355296D01*
X360000Y355296D02*
X360000Y368504D01*
X410800Y368504D02*
X410800Y355296D01*
X385400Y355296D02*
X385400Y368504D01*
X410800Y431496D02*
X410800Y444704D01*
X385400Y444704D02*
X385400Y431496D01*
X360000Y431496D02*
X360000Y444704D01*
X334600Y444704D02*
X334600Y431496D01*
X309200Y431496D02*
X309200Y444704D01*
X283800Y444704D02*
X283800Y431496D01*
X63800Y368504D02*
X63800Y355296D01*
X89200Y355296D02*
X89200Y368504D01*
X216200Y368504D02*
X216200Y355296D01*
X216200Y431496D02*
X216200Y444704D01*
X114600Y368504D02*
X114600Y355296D01*
X140000Y355296D02*
X140000Y368504D01*
X190800Y368504D02*
X190800Y355296D01*
X165400Y355296D02*
X165400Y368504D01*
X190800Y431496D02*
X190800Y444704D01*
X165400Y444704D02*
X165400Y431496D01*
X140000Y431496D02*
X140000Y444704D01*
X114600Y444704D02*
X114600Y431496D01*
X89200Y431496D02*
X89200Y444704D01*
X63800Y444704D02*
X63800Y431496D01*
D14*
X415000Y82500D03*
X385000Y82500D03*
X400000Y82500D03*
D15*
X400000Y110500D03*
D16*
X435600Y36120D02*
X435600Y20880D01*
X461000Y20880D02*
X461000Y36120D01*
D17*
X50000Y917500D03*
X50000Y882500D03*
X100000Y917500D03*
X100000Y882500D03*
X150000Y917500D03*
X150000Y882500D03*
X200000Y917500D03*
X200000Y882500D03*
X300000Y917500D03*
X300000Y882500D03*
X350000Y917500D03*
X350000Y882500D03*
X400000Y917500D03*
X400000Y882500D03*
X450000Y917500D03*
X450000Y882500D03*
X250000Y917500D03*
X250000Y882500D03*
D18*
X50000Y854220D03*
X50000Y825780D03*
D19*
X420780Y570000D03*
X449220Y570000D03*
X420780Y540000D03*
X449220Y540000D03*
X200780Y600000D03*
X229220Y600000D03*
X200780Y540000D03*
X229220Y540000D03*
X200780Y570000D03*
X229220Y570000D03*
D20*
X87500Y81000D03*
X112500Y81000D03*
D21*
X100000Y119000D03*
D18*
X100000Y195780D03*
X100000Y224220D03*
X100000Y854220D03*
X100000Y825780D03*
X150000Y854220D03*
X150000Y825780D03*
X200000Y854220D03*
X200000Y825780D03*
X250000Y854220D03*
X250000Y825780D03*
X300000Y854220D03*
X300000Y825780D03*
X350000Y854220D03*
X350000Y825780D03*
X400000Y854220D03*
X400000Y825780D03*
X450000Y854220D03*
X450000Y825780D03*
D22*
X272500Y58000D03*
X272500Y142000D03*
X250000Y142000D03*
X227500Y142000D03*
X227500Y58000D03*
D23*
X373000Y630000D03*
X152500Y570000D03*
X385000Y63500D03*
X394500Y600000D03*
X257000Y540000D03*
X248500Y171000D03*
M02*
